# xmcd
#
# Track frame offsets:
# 150
# 16163
# 29516
# 43271
# 59597
# 77815
# 91969
# 105095
# 119409
# 137853
# 151352
# 167705
# 183169
# 200691
# 217837
# 228980
# 246181
# 262213
# 274897
# 286980
# 301409
# 313755
# 325785
# 342670
#
# Disc length: 4780 seconds
#
#
# Revision: 0
# Processed by: cddbd v1.5.1PL0 Copyright (c) Steve Scherf et al.
# Submitted via: FreeRIP 2.90 
#
DISCID=6112aa18
DTITLE=Varios - Con Acordeón 2005
DYEAR=1900
DGENRE=Latin
TTITLE0=Intro
TTITLE1=Ojalá que te mueras
TTITLE2=Belleza de Cantina
TTITLE3=La sorpresa
TTITLE4=El carrito
TTITLE5=Ven
TTITLE6=El rumbo que tu quieras
TTITLE7=La suata
TTITLE8=Aire
TTITLE9=En tu basura
TTITLE10=Pa' que son pasiones
TTITLE11=Que vuelvo contigo
TTITLE12=Mi amante
TTITLE13=A ella
TTITLE14=Si me vas a dejar
TTITLE15=Tu ponte en mi lugar
TTITLE16=La deje por ti
TTITLE17=Si yo fuera el
TTITLE18=La puñalada en el corazon
TTITLE19=Te metiste en mi
TTITLE20=Ni que tuvieras tanta suerte
TTITLE21=Una vez más
TTITLE22=Espejo de cantina
TTITLE23=Ni que valieras tanto
EXTD=
EXTT0=
EXTT1=
EXTT2=
EXTT3=
EXTT4=
EXTT5=
EXTT6=
EXTT7=
EXTT8=
EXTT9=
EXTT10=
EXTT11=
EXTT12=
EXTT13=
EXTT14=
EXTT15=
EXTT16=
EXTT17=
EXTT18=
EXTT19=
EXTT20=
EXTT21=
EXTT22=
EXTT23=
PLAYORDER=
